# generated from PmQm by Jehee Lee
:FULLY-SPECIFIED
:DEGREES
709
root -33.95229479 39.1368 -50.57698085 120.2487118 -85.30372366 -122.2443501
RightUpLeg -0.7220279245 2.839193715 4.257643747
RightLeg 20.24123862 0 0
RightFoot -16.63962818 9.970845438 -2.149783465
RightToes 2.32829e-010 -1.59028e-015 9.93923e-017
Spine -8.09685 4.28993 13.4388
Spine1 14.4793 5.16981 -5.55563
HEad -8.53831 -5.02505 1.2513
LeftShoulder1 9.93923e-017 0 1.22299e-017
LeftArm 3.03309 55.6042 -66.8765
LeftForeArm -11.7008 -10.2295 -4.35487
LeftHand 0.964956 6.70599 -5.97777
RightShoulder 1.98785e-016 -4.96962e-017 1.55301e-017
RightArm 20.1872 -21.9817 82.6238
RightForeArm -44.228 29.6533 -26.5435
RightHand 1.17304 -10.2993 -6.4314
LeftUpLeg -26.37526249 -0.7146064603 4.768043195
LeftLeg 17.05311544 -5.755577431 0.7676324654
LeftFoot 6.611572353 -1.924331721 -7.251294479
LeftToes 8.82235e-011 9.04645e-011 1.87288e-011
710
root -35.45052538 39.0155 -50.72056498 122.863779 -84.94160354 -124.1886022
RightUpLeg 1.49689668 2.690741199 4.573490242
RightLeg 19.34831288 0 0
RightFoot -17.9723045 10.60290259 -2.269162317
RightToes 2.32829e-010 -1.59028e-015 9.93923e-017
Spine -9.55206 4.83757 14.5931
Spine1 15.3412 5.80493 -6.97747
HEad -8.71883 -5.13068 1.30073
LeftShoulder1 9.93923e-017 0 1.22299e-017
LeftArm -0.365423 55.8509 -65.2931
LeftForeArm -9.19698 -8.25998 -4.8776
LeftHand 0.973909 6.82217 -5.55341
RightShoulder 1.98785e-016 -4.96962e-017 1.55301e-017
RightArm 19.5693 -20.2135 82.2798
RightForeArm -44.1874 29.9719 -26.7769
RightHand 1.14635 -10.1704 -6.21836
LeftUpLeg -26.209727 -0.4698603488 3.745018078
LeftLeg 5.758496857 -5.463644595 0.4655457185
LeftFoot 6.794535226 -0.6266232105 -7.326936838
LeftToes 8.82235e-011 9.04645e-011 1.87288e-011
711
root -36.99264063 38.7936 -50.91507793 125.6040457 -84.30873788 -125.881573
RightUpLeg 2.850658155 2.348585221 4.942061468
RightLeg 19.52942287 0 0
RightFoot -19.36990304 11.69642672 -2.087546527
RightToes 2.32829e-010 -1.59028e-015 9.93923e-017
Spine -11.2292 5.50976 16.0989
Spine1 16.0748 6.49691 -8.38122
HEad -8.96868 -5.25482 1.45882
LeftShoulder1 9.93923e-017 0 1.22299e-017
LeftArm -3.43556 55.6358 -64.3967
LeftForeArm -7.41591 -6.44362 -5.20002
LeftHand 1.00257 7.13443 -5.52391
RightShoulder 1.98785e-016 -4.96962e-017 1.55301e-017
RightArm 19.2962 -19.3455 82.2059
RightForeArm -44.2739 29.6849 -26.5628
RightHand 1.13498 -10.1113 -6.14149
LeftUpLeg -27.9830869 -0.5447431639 3.486607993
LeftLeg 1.046698975 -3.435968586 0.03318317914
LeftFoot 4.380378362 0.4628591313 -8.932266556
LeftToes 8.82235e-011 9.04645e-011 1.87288e-011
712
root -38.55881301 38.606 -51.12243449 127.7015221 -84.28495965 -127.1799841
RightUpLeg 4.404096007 1.890262928 4.68962161
RightLeg 19.87807941 0 0
RightFoot -19.63636913 13.06569101 -1.2873551
RightToes 2.32829e-010 -1.59028e-015 9.93923e-017
Spine -12.1546 5.85722 16.6885
Spine1 16.4674 7.00495 -9.47714
HEad -9.44381 -5.42776 1.65421
LeftShoulder1 9.93923e-017 0 1.22299e-017
LeftArm -6.6077 55.0293 -64.3725
LeftForeArm -5.50597 -4.71902 -5.34881
LeftHand 1.0012 7.1207 -5.41116
RightShoulder 1.98785e-016 -4.96962e-017 1.55301e-017
RightArm 19.1526 -19.652 82.4421
RightForeArm -44.4089 28.9425 -26.0225
RightHand 1.15452 -10.207 -6.29791
LeftUpLeg -29.32533246 -0.8813651745 2.854084769
LeftLeg 0.6989559336 -1.391979796 -0.4345469453
LeftFoot 2.339478615 1.069507283 -10.05682606
LeftToes 8.82235e-011 9.04645e-011 1.87288e-011
713
root -40.21341278 38.4781 -51.34334377 135.3592784 -84.7320439 -134.4718441
RightUpLeg 6.279829768 1.047079173 3.329516075
RightLeg 20.66477614 0 0
RightFoot -18.98939405 15.29035251 -0.4195767845
RightToes 2.32829e-010 -1.59028e-015 9.93923e-017
Spine -12.4809 6.07 16.131
Spine1 16.6758 7.5605 -10.1947
HEad -9.91584 -5.61014 1.72987
LeftShoulder1 9.93923e-017 0 1.22299e-017
LeftArm -9.17442 54.3413 -65.0809
LeftForeArm -4.28792 -3.67452 -5.31467
LeftHand 0.976454 6.86272 -5.07199
RightShoulder 1.98785e-016 -4.96962e-017 1.55301e-017
RightArm 19.3593 -21.2995 82.9588
RightForeArm -44.8823 27.7921 -25.1879
RightHand 1.1632 -10.207 -6.55283
LeftUpLeg -28.82860728 -2.00925717 1.22412472
LeftLeg 2.102161624 0 0
LeftFoot 2.698620765 0.7365548805 -8.134732485
LeftToes 8.82235e-011 9.04645e-011 1.87288e-011
714
root -41.96676421 38.3992 -51.58891157 155.0351205 -84.72774028 -153.7955839
RightUpLeg 7.575288021 -0.7096880619 0.3900317299
RightLeg 22.57295371 0 0
RightFoot -17.44127658 19.34318062 0.5101257394
RightToes 2.32829e-010 -1.59028e-015 9.93923e-017
Spine -12.9619 6.48979 14.6785
Spine1 16.9032 8.37685 -10.7635
HEad -9.95357 -5.53207 1.71529
LeftShoulder1 9.93923e-017 0 1.22299e-017
LeftArm -10.4968 54.0093 -66.1619
LeftForeArm -4.69278 -3.83271 -5.16164
LeftHand 0.972732 6.82958 -4.8704
RightShoulder 1.98785e-016 -4.96962e-017 1.55301e-017
RightArm 21.128 -23.8806 83.8761
RightForeArm -46.265 25.967 -23.8724
RightHand 1.1413 -10.0446 -6.63461
LeftUpLeg -27.63388742 -2.970036958 0.194712147
LeftLeg 3.684211305 0 0
LeftFoot 6.530233297 0.5997998624 -3.573597179
LeftToes 8.82235e-011 9.04645e-011 1.87288e-011
715
root -43.60214014 38.41137577 -51.94259619 178.8105685 -85.4455983 -177.4992271
RightUpLeg 6.013106696 -2.912520073 -2.996590734
RightLeg 28.65589777 0 0
RightFoot -9.391800091 20.41359909 -0.4219788585
RightToes 2.32829e-010 -1.59028e-015 9.93923e-017
Spine -12.66719625 5.540481784 10.99942851
Spine1 15.9615952 7.528856474 -10.68229244
HEad -9.20112049 -5.217998903 2.316593388
LeftShoulder1 9.93923e-017 0 1.22299e-017
LeftArm -11.70516909 52.82736869 -67.28620872
LeftForeArm -5.529452188 -3.703602121 -5.188081799
LeftHand 1.02661 7.3694 -4.41701
RightShoulder 1.98785e-016 -4.96962e-017 1.55301e-017
RightArm 25.11560053 -27.33790153 85.93115987
RightForeArm -48.41120236 24.4836114 -22.94891294
RightHand 1.19146 -10.4042 -6.50393
LeftUpLeg -26.8843803 -3.014485684 -1.20425574
LeftLeg 7.242757364 0 0
LeftFoot 6.882826834 0.1428889804 -3.283948684
LeftToes 8.82235e-011 9.04645e-011 1.87288e-011
716
root -45.08861619 38.40759866 -52.25513784 -152.2124358 -85.97780972 153.5727351
RightUpLeg 2.510654331 -3.593453741 -6.177683129
RightLeg 38.17828384 0 0
RightFoot 1.459876218 18.85581476 -3.62224549
RightToes 2.32829e-010 -1.59028e-015 9.93923e-017
Spine -10.80497685 3.879197811 6.711755758
Spine1 14.21047052 5.898573178 -10.27596106
HEad -9.356503806 -4.691262502 2.837931317
LeftShoulder1 9.93923e-017 0 1.22299e-017
LeftArm -11.25042111 49.76714594 -68.94589826
LeftForeArm -6.340785174 -3.82537775 -5.561190529
LeftHand 1.0097 7.20765 -5.05441
RightShoulder 1.98785e-016 -4.96962e-017 1.55301e-017
RightArm 28.6562778 -30.59627422 88.18877302
RightForeArm -51.86194915 22.11632745 -20.82756746
RightHand 1.16096 -10.3732 -5.78301
LeftUpLeg -26.64192891 -2.815259832 -2.379675833
LeftLeg 13.05911239 0 0
LeftFoot 3.530304893 -2.469120096 -2.913186813
LeftToes 8.82235e-011 9.04645e-011 1.87288e-011
717
root -46.44935083 38.40860858 -52.51476572 -133.1844295 -85.28832958 134.5358722
RightUpLeg -2.905859293 -2.748829923 -7.571025067
RightLeg 48.0980328 -3.031876258 -5.714033183
RightFoot 12.3100876 18.81001308 1.339690751
RightToes 2.32829e-010 -1.59028e-015 9.93923e-017
Spine -8.615737823 2.739157942 2.825787768
Spine1 13.05120699 4.637527439 -9.763503017
HEad -10.24917151 -4.023258346 2.809232198
LeftShoulder1 9.93923e-017 0 1.22299e-017
LeftArm -9.244655508 44.94620471 -71.2246392
LeftForeArm -7.754399472 -4.268921786 -6.17987125
LeftHand 0.992905 7.03592 -5.03757
RightShoulder 1.98785e-016 -4.96962e-017 1.55301e-017
RightArm 26.74857932 -33.49647376 89.80611261
RightForeArm -50.5587284 20.74354785 -16.03337121
RightHand 1.09086 -10.2491 -4.27313
LeftUpLeg -26.07482151 -2.686108797 -2.643240283
LeftLeg 18.68975191 0 0
LeftFoot -0.4633301986 -4.658731381 -2.654634829
LeftToes 8.82235e-011 9.04645e-011 1.87288e-011
718
root -47.82804714 38.53700323 -52.74001188 -131.0407869 -84.30612928 132.308717
RightUpLeg -7.995290211 -0.9772431372 -8.28831856
RightLeg 56.04790096 -4.389085587 -11.31772214
RightFoot 16.51579065 16.40904031 5.285859812
RightToes 2.32829e-010 -1.59028e-015 9.93923e-017
Spine -7.156561866 2.192774118 -0.3495186524
Spine1 12.58159011 3.779607961 -8.859403652
HEad -10.95362685 -3.058958446 2.324656645
LeftShoulder1 9.93923e-017 0 1.22299e-017
LeftArm -6.599681884 39.93016714 -73.60455984
LeftForeArm -10.45827374 -5.325537262 -6.581468644
LeftHand 0.970123 6.82072 -4.29005
RightShoulder 1.98785e-016 -4.96962e-017 1.55301e-017
RightArm 20.68931634 -36.20283342 90.30526425
RightForeArm -43.36041459 19.73561349 -9.223474288
RightHand 1.03939 -10.2002 -2.94224
LeftUpLeg -24.43816252 -2.637658448 -2.208031281
LeftLeg 22.14471904 0 0
LeftFoot -3.003630316 -5.622773142 -2.963989929
LeftToes 8.82235e-011 9.04645e-011 1.87288e-011
719
root -49.33016067 38.80596671 -52.9441675 -132.4272135 -84.33344934 133.5422109
RightUpLeg -12.35107458 -0.09218584067 -7.744910038
RightLeg 60.66047092 -3.582326061 -14.03129692
RightFoot 14.33296435 14.39690376 6.597584216
RightToes 2.32829e-010 -1.59028e-015 9.93923e-017
Spine -6.580303668 1.426715935 -2.500291036
Spine1 12.02732856 2.53177302 -7.099113957
HEad -10.67315642 -1.707370066 1.845580681
LeftShoulder1 9.93923e-017 0 1.22299e-017
LeftArm -3.809392417 36.06141893 -75.4896582
LeftForeArm -14.22375103 -8.752497789 -5.514277912
LeftHand 0.942205 6.57551 -3.70458
RightShoulder 1.98785e-016 -4.96962e-017 1.55301e-017
RightArm 18.87628383 -39.36248856 90.13882366
RightForeArm -38.50217185 18.41094486 -4.684044826
RightHand 1.03827 -10.3208 -2.49664
LeftUpLeg -21.63873357 -2.309619032 -1.325538925
LeftLeg 23.16731369 0 0
LeftFoot -4.529885872 -6.925084947 -3.561906139
LeftToes 8.82235e-011 9.04645e-011 1.87288e-011
